# xmcd
#
# Track frame offsets:
#	150
#	16841
#	32277
#	51514
#	77102
#	91681
#	105861
#	121313
#	135940
#	152019
#	166676
#	182193
#	198995
#	217282
#	231264
#
# Disc length: 3277 seconds
#
# Revision: 0
# Processed by: cddbd v1.5.2PL0 Copyright (c) Steve Scherf et al.
# Submitted via: EasyCDDAExtractor 11.1.0.1
#
DISCID=b40ccb0f
DTITLE=Bosák Jiří - Pivní pěna - Lidovky N-P [CD4)
DYEAR=2007
DGENRE=Country
TTITLE0=Na břehu Blanice
TTITLE1=Na Pankráci
TTITLE2=Na staré Mohelně
TTITLE3=Na tom pražským mostě
TTITLE4=Na Vlachovce
TTITLE5=Náchodskej zámeček
TTITLE6=Nedaleko od Trenčína
TTITLE7=Netolický údolí
TTITLE8=Nezlobte se, rodičové
TTITLE9=Od Tábora až k nám
TTITLE10=Okolo Zlatý stoky
TTITLE11=Pěknej obrázek
TTITLE12=Piju já
TTITLE13=Pivovarský koně
TTITLE14=Plzeňská porodnice
EXTD=
EXTT0=
EXTT1=
EXTT2=
EXTT3=
EXTT4=
EXTT5=
EXTT6=
EXTT7=
EXTT8=
EXTT9=
EXTT10=
EXTT11=
EXTT12=
EXTT13=
EXTT14=
PLAYORDER=
